<svg xmlns="http://www.w3.org/2000/svg" width="512" height="512" viewBox="0 0 512 512">
  <defs>
    <linearGradient id="grad" x1="0%" y1="0%" x2="100%" y2="100%">
      <stop offset="0%" style="stop-color:#3B82F6;stop-opacity:1" />
      <stop offset="100%" style="stop-color:#2563EB;stop-opacity:1" />
    </linearGradient>
  </defs>
  <rect width="512" height="512" rx="100" fill="url(#grad)"/>
  <path d="M 256 128 C 220 128 192 156 192 192 L 192 224 L 160 224 C 143 224 128 239 128 256 L 128 384 C 128 401 143 416 160 416 L 352 416 C 369 416 384 401 384 384 L 384 256 C 384 239 369 224 352 224 L 320 224 L 320 192 C 320 156 292 128 256 128 Z M 256 160 C 274 160 288 174 288 192 L 288 224 L 224 224 L 224 192 C 224 174 238 160 256 160 Z M 256 288 C 265 288 272 295 272 304 L 272 336 C 272 345 265 352 256 352 C 247 352 240 345 240 336 L 240 304 C 240 295 247 288 256 288 Z" fill="white"/>
</svg>
